<?xml version="1.0" standalone="no"?>
<!DOCTYPE svg PUBLIC "-//W3C//DTD SVG 20010904//EN"
 "http://www.w3.org/TR/2001/REC-SVG-20010904/DTD/svg10.dtd">
<svg version="1.0" xmlns="http://www.w3.org/2000/svg"
 width="887.000000pt" height="980.000000pt" viewBox="0 0 887.000000 980.000000"
 preserveAspectRatio="xMidYMid meet">
<metadata>
Created by potrace 1.16, written by Peter Selinger 2001-2019
</metadata>
<g transform="translate(0.000000,980.000000) scale(0.100000,-0.100000)"
fill="#000000" stroke="none">
<path d="M4760 9740 c-270 -55 -925 -200 -1332 -293 -252 -58 -271 -74 -304
-243 -7 -40 -29 -194 -49 -341 -56 -430 -86 -617 -99 -630 -15 -16 -245 -69
-1505 -349 -1238 -275 -1335 -298 -1382 -329 -69 -45 -98 -151 -64 -233 20
-48 50 -79 100 -104 59 -31 132 -21 568 75 207 46 377 80 377 77 0 -4 -16 -28
-35 -53 -23 -29 -35 -57 -35 -77 0 -110 550 -6791 581 -7060 13 -112 19 -125
61 -139 97 -32 248 -34 3287 -38 l3044 -4 34 33 c64 61 71 87 93 330 129 1459
516 6355 536 6784 l7 141 -38 42 c-74 82 -85 85 -383 91 l-263 5 -183 326
c-278 495 -294 520 -360 550 -23 10 -62 19 -87 19 -59 0 -104 -29 -349 -224
-102 -81 -194 -152 -206 -158 -24 -11 -98 24 -454 216 -248 134 -308 160 -370
159 -76 0 -128 -31 -980 -572 l-505 -321 -1545 0 c-850 0 -1551 4 -1558 8 -15
10 -10 11 2133 478 1039 227 1209 264 2410 528 2928 644 2831 622 2863 645 65
46 102 108 102 170 0 103 -85 201 -174 201 -60 0 -374 -66 -1866 -390 -1011
-219 -1030 -223 -1035 -218 -2 1 -83 131 -180 287 -193 310 -339 533 -391 597
-39 49 -88 74 -141 74 -21 -1 -166 -27 -323 -60z m341 -565 c161 -249 260
-418 251 -427 -21 -21 -1829 -408 -1906 -408 -22 0 -21 24 14 305 40 319 51
395 59 399 14 8 969 220 1201 266 198 39 190 38 233 36 39 -1 39 -1 148 -171z
m1088 -1422 c298 -163 533 -281 574 -288 65 -12 113 17 356 213 84 68 157 120
161 115 19 -20 201 -355 196 -360 -9 -10 -1699 -15 -1971 -6 l-249 8 259 165
c370 235 414 260 448 260 20 0 100 -38 226 -107z m1975 -759 l46 -7 0 -44 c0
-88 -386 -4955 -490 -6180 -17 -194 -30 -357 -30 -363 0 -7 -932 -10 -2859
-10 l-2859 0 -6 53 c-14 125 -479 5873 -522 6454 l-7 92 94 4 c180 6 6587 7
6633 1z"/>
<path d="M2870 6089 c-32 -13 -78 -56 -96 -91 -20 -39 -18 -80 26 -698 115
-1596 292 -3799 311 -3873 13 -48 63 -105 114 -128 105 -48 229 7 266 118 8
26 10 74 6 163 -23 444 -342 4306 -364 4400 -8 35 -51 79 -98 101 -43 20 -124
24 -165 8z"/>
<path d="M4756 6090 c-42 -13 -83 -56 -103 -109 -17 -44 -18 -169 -18 -2318
l0 -2272 40 -35 c64 -57 118 -80 175 -73 64 8 122 36 137 68 35 72 36 129 40
2400 l4 2246 -42 37 c-23 21 -56 44 -75 52 -37 15 -113 17 -158 4z"/>
<path d="M6635 6083 c-83 -43 -120 -107 -129 -228 -3 -38 -33 -405 -66 -814
-210 -2584 -286 -3577 -276 -3614 10 -39 70 -102 122 -128 57 -27 115 -22 178
15 72 42 77 56 97 254 78 771 349 4136 349 4324 0 89 -29 145 -94 183 -51 30
-133 34 -181 8z"/>
</g>
</svg>
